<svg xmlns="http://www.w3.org/2000/svg" xmlns:xlink="http://www.w3.org/1999/xlink" id="Layer_1" x="0" y="0" version="1.1" viewBox="-286.3 404.9 42.5 32" xml:space="preserve" style="enable-background:new -286.3 404.9 42.5 32"><style type="text/css">.st0{fill:#e02f2f}.st1{fill:#fff}</style><g><path d="M-244.3,411.8c0,0-0.4-3.1-1.7-4.5c-1.6-1.8-3.4-1.8-4.2-1.9c-5.9-0.5-14.8-0.5-14.8-0.5h0c0,0-8.9,0-14.8,0.5 c-0.8,0.1-2.6,0.1-4.2,1.9c-1.3,1.4-1.7,4.5-1.7,4.5s-0.4,3.7-0.4,7.3v3.4c0,3.7,0.4,7.3,0.4,7.3s0.4,3.1,1.7,4.5 c1.6,1.8,3.7,1.7,4.7,1.9c3.4,0.3,14.4,0.5,14.4,0.5s8.9,0,14.8-0.5c0.8-0.1,2.6-0.1,4.2-1.9c1.3-1.4,1.7-4.5,1.7-4.5 s0.4-3.7,0.4-7.3v-3.4C-243.9,415.5-244.3,411.8-244.3,411.8z" class="st0"/><polygon points="-270.4 412.9 -270.4 428.8 -257.1 420.9" class="st1"/></g></svg>